<?xml version="1.0" encoding="utf-8"?>
<!DOCTYPE svg PUBLIC "-//W3C//DTD SVG 1.1//EN" "http://www.w3.org/Graphics/SVG/1.1/DTD/svg11.dtd">
<svg version="1.1" id="Layer_1" xmlns="http://www.w3.org/2000/svg" xmlns:xlink="http://www.w3.org/1999/xlink" x="0px" y="0px"
width="231px" height="231px" viewBox="0 0 231 231" enable-background="new 0 0 231 231" xml:space="preserve">
<rect x="0" y="0" width="231" height="231" fill="rgb(0,0,0)" /><g transform="translate(14,14)"><g transform="translate(56,0) scale(0.07,0.07)"><g transform="" style="fill: rgb(255, 255, 255);">
<polygon points="100,100 50,0 50,0 0,100 "/>
</g></g><g transform="translate(70,0) scale(0.07,0.07)"><g transform="" style="fill: rgb(255, 255, 255);">
<polygon points="100,100 0,50 0,50 100,0 "/>
</g></g><g transform="translate(77,0) scale(0.07,0.07)"><g transform="" style="fill: rgb(255, 255, 255);">
<g>
	<path d="M100,34.375c0-9.505-3.354-17.611-10.059-24.316S75.131,0,65.625,0H0v100h100V34.375z"/>
</g>
</g></g><g transform="translate(91,0) scale(0.07,0.07)"><g transform="" style="fill: rgb(255, 255, 255);">
<g>
	<path d="M100,34.375V0H34.375C24.87,0,16.764,3.353,10.059,10.059S0,24.87,0,34.375V100h100V34.375z"/>
</g>
</g></g><g transform="translate(98,0) scale(0.07,0.07)"><g transform="" style="fill: rgb(255, 255, 255);">
<rect width="100" height="100"/>
</g></g><g transform="translate(105,0) scale(0.07,0.07)"><g transform="" style="fill: rgb(255, 255, 255);">
<g>
	<path d="M100,34.375c0-9.505-3.354-17.611-10.059-24.316S75.131,0,65.625,0H0v100h100V34.375z"/>
</g>
</g></g><g transform="translate(119,0) scale(0.07,0.07)"><g transform="" style="fill: rgb(255, 255, 255);">
<g>
	<path d="M100,34.375V0H34.375C24.87,0,16.764,3.353,10.059,10.059S0,24.87,0,34.375V100h100V34.375z"/>
</g>
</g></g><g transform="translate(126,0) scale(0.07,0.07)"><g transform="" style="fill: rgb(255, 255, 255);">
<g>
	<path d="M100,34.375c0-9.505-3.354-17.611-10.059-24.316S75.131,0,65.625,0H0v100h100V34.375z"/>
</g>
</g></g><g transform="translate(56,7) scale(0.07,0.07)"><g transform="" style="fill: rgb(255, 255, 255);">
<rect width="100" height="100"/>
</g></g><g transform="translate(63,7) scale(0.07,0.07)"><g transform="" style="fill: rgb(255, 255, 255);">
<g>
	<path d="M100,34.375c0-9.505-3.354-17.611-10.059-24.316S75.131,0,65.625,0H0v100h100V34.375z"/>
</g>
</g></g><g transform="translate(77,7) scale(0.07,0.07)"><g transform="" style="fill: rgb(255, 255, 255);">
<g>
	<path d="M100,0H0v65.625c0,9.506,3.353,17.611,10.059,24.316S24.87,100,34.375,100H100V0z"/>
</g>
</g></g><g transform="translate(84,7) scale(0.07,0.07)"><g transform="" style="fill: rgb(255, 255, 255);">
<rect width="100" height="100"/>
</g></g><g transform="translate(91,7) scale(0.07,0.07)"><g transform="" style="fill: rgb(255, 255, 255);">
<rect width="100" height="100"/>
</g></g><g transform="translate(98,7) scale(0.07,0.07)"><g transform="" style="fill: rgb(255, 255, 255);">
<rect width="100" height="100"/>
</g></g><g transform="translate(105,7) scale(0.07,0.07)"><g transform="" style="fill: rgb(255, 255, 255);">
<g>
	<path d="M100,0H0v100h65.625c9.506,0,17.611-3.354,24.316-10.059S100,75.131,100,65.625V0z"/>
</g>
</g></g><g transform="translate(119,7) scale(0.07,0.07)"><g transform="" style="fill: rgb(255, 255, 255);">
<g>
	<path d="M100,0H0v65.625c0,9.506,3.353,17.611,10.059,24.316S24.87,100,34.375,100H100V0z"/>
</g>
</g></g><g transform="translate(126,7) scale(0.07,0.07)"><g transform="" style="fill: rgb(255, 255, 255);">
<rect width="100" height="100"/>
</g></g><g transform="translate(133,7) scale(0.07,0.07)"><g transform="" style="fill: rgb(255, 255, 255);">
<rect width="100" height="100"/>
</g></g><g transform="translate(140,7) scale(0.07,0.07)"><g transform="" style="fill: rgb(255, 255, 255);">
<polygon points="0,100 100,50 100,50 0,0 "/>
</g></g><g transform="translate(56,14) scale(0.07,0.07)"><g transform="" style="fill: rgb(255, 255, 255);">
<g>
	<path d="M100,0H0v65.625c0,9.506,3.353,17.611,10.059,24.316S24.87,100,34.375,100H100V0z"/>
</g>
</g></g><g transform="translate(63,14) scale(0.07,0.07)"><g transform="" style="fill: rgb(255, 255, 255);">
<rect width="100" height="100"/>
</g></g><g transform="translate(70,14) scale(0.07,0.07)"><g transform="" style="fill: rgb(255, 255, 255);">
<polygon points="0,100 100,50 100,50 0,0 "/>
</g></g><g transform="translate(91,14) scale(0.07,0.07)"><g transform="" style="fill: rgb(255, 255, 255);">
<g>
	<path d="M100,0H0v65.625c0,9.506,3.353,17.611,10.059,24.316S24.87,100,34.375,100H100V0z"/>
</g>
</g></g><g transform="translate(98,14) scale(0.07,0.07)"><g transform="" style="fill: rgb(255, 255, 255);">
<rect width="100" height="100"/>
</g></g><g transform="translate(63,21) scale(0.07,0.07)"><g transform="" style="fill: rgb(255, 255, 255);">
<rect width="100" height="100"/>
</g></g><g transform="translate(98,21) scale(0.07,0.07)"><g transform="" style="fill: rgb(255, 255, 255);">
<g>
	<path d="M100,0H0v65.625c0,9.506,3.353,17.611,10.059,24.316S24.87,100,34.375,100H100V0z"/>
</g>
</g></g><g transform="translate(105,21) scale(0.07,0.07)"><g transform="" style="fill: rgb(255, 255, 255);">
<g>
	<path d="M100,34.375c0-9.505-3.354-17.611-10.059-24.316S75.131,0,65.625,0H0v100h100V34.375z"/>
</g>
</g></g><g transform="translate(119,21) scale(0.07,0.07)"><g transform="" style="fill: rgb(255, 255, 255);">
<polygon points="100,100 50,0 50,0 0,100 "/>
</g></g><g transform="translate(56,28) scale(0.07,0.07)"><g transform="" style="fill: rgb(255, 255, 255);">
<polygon points="100,100 0,50 0,50 100,0 "/>
</g></g><g transform="translate(63,28) scale(0.07,0.07)"><g transform="" style="fill: rgb(255, 255, 255);">
<rect width="100" height="100"/>
</g></g><g transform="translate(70,28) scale(0.07,0.07)"><g transform="" style="fill: rgb(255, 255, 255);">
<g>
	<path d="M100,34.375c0-9.505-3.354-17.611-10.059-24.316S75.131,0,65.625,0H0v100h100V34.375z"/>
</g>
</g></g><g transform="translate(91,28) scale(0.07,0.07)"><g transform="" style="fill: rgb(255, 255, 255);">
<polygon points="100,100 50,0 50,0 0,100 "/>
</g></g><g transform="translate(105,28) scale(0.07,0.07)"><g transform="" style="fill: rgb(255, 255, 255);">
<polygon points="0,-0.001 50,99.999 50,99.999 100,-0.001 "/>
</g></g><g transform="translate(119,28) scale(0.07,0.07)"><g transform="" style="fill: rgb(255, 255, 255);">
<rect width="100" height="100"/>
</g></g><g transform="translate(126,28) scale(0.07,0.07)"><g transform="" style="fill: rgb(255, 255, 255);">
<rect width="100" height="100"/>
</g></g><g transform="translate(133,28) scale(0.07,0.07)"><g transform="" style="fill: rgb(255, 255, 255);">
<polygon points="0,100 100,50 100,50 0,0 "/>
</g></g><g transform="translate(63,35) scale(0.07,0.07)"><g transform="" style="fill: rgb(255, 255, 255);">
<g>
	<path d="M100,0H0v65.625c0,9.506,3.353,17.611,10.059,24.316S24.87,100,34.375,100H100V0z"/>
</g>
</g></g><g transform="translate(70,35) scale(0.07,0.07)"><g transform="" style="fill: rgb(255, 255, 255);">
<rect width="100" height="100"/>
</g></g><g transform="translate(91,35) scale(0.07,0.07)"><g transform="" style="fill: rgb(255, 255, 255);">
<g>
	<path d="M100,0H0v65.625c0,9.506,3.353,17.611,10.059,24.316S24.87,100,34.375,100H100V0z"/>
</g>
</g></g><g transform="translate(98,35) scale(0.07,0.07)"><g transform="" style="fill: rgb(255, 255, 255);">
<g>
	<path d="M100,34.375c0-9.505-3.354-17.611-10.059-24.316S75.131,0,65.625,0H0v100h100V34.375z"/>
</g>
</g></g><g transform="translate(119,35) scale(0.07,0.07)"><g transform="" style="fill: rgb(255, 255, 255);">
<polygon points="0,-0.001 50,99.999 50,99.999 100,-0.001 "/>
</g></g><g transform="translate(140,35) scale(0.07,0.07)"><g transform="" style="fill: rgb(255, 255, 255);">
<polygon points="100,100 50,0 50,0 0,100 "/>
</g></g><g transform="translate(56,42) scale(0.07,0.07)"><g transform="" style="fill: rgb(255, 255, 255);">
<polygon points="99.999,49.999 99.998,49.999 49.999,0 0,49.999 -0.001,49.999 -0.001,50 0,50 49.999,99.999 99.998,50 99.999,50
	99.998,50 "/>
</g></g><g transform="translate(70,42) scale(0.07,0.07)"><g transform="" style="fill: rgb(255, 255, 255);">
<polygon points="0,-0.001 50,99.999 50,99.999 100,-0.001 "/>
</g></g><g transform="translate(84,42) scale(0.07,0.07)"><g transform="" style="fill: rgb(255, 255, 255);">
<polygon points="100,100 50,0 50,0 0,100 "/>
</g></g><g transform="translate(98,42) scale(0.07,0.07)"><g transform="" style="fill: rgb(255, 255, 255);">
<rect width="100" height="100"/>
</g></g><g transform="translate(112,42) scale(0.07,0.07)"><g transform="" style="fill: rgb(255, 255, 255);">
<polygon points="99.999,49.999 99.998,49.999 49.999,0 0,49.999 -0.001,49.999 -0.001,50 0,50 49.999,99.999 99.998,50 99.999,50
	99.998,50 "/>
</g></g><g transform="translate(126,42) scale(0.07,0.07)"><g transform="" style="fill: rgb(255, 255, 255);">
<polygon points="99.999,49.999 99.998,49.999 49.999,0 0,49.999 -0.001,49.999 -0.001,50 0,50 49.999,99.999 99.998,50 99.999,50
	99.998,50 "/>
</g></g><g transform="translate(140,42) scale(0.07,0.07)"><g transform="" style="fill: rgb(255, 255, 255);">
<polygon points="0,-0.001 50,99.999 50,99.999 100,-0.001 "/>
</g></g><g transform="translate(63,49) scale(0.07,0.07)"><g transform="" style="fill: rgb(255, 255, 255);">
<polygon points="99.999,49.999 99.998,49.999 49.999,0 0,49.999 -0.001,49.999 -0.001,50 0,50 49.999,99.999 99.998,50 99.999,50
	99.998,50 "/>
</g></g><g transform="translate(77,49) scale(0.07,0.07)"><g transform="" style="fill: rgb(255, 255, 255);">
<g>
	<path d="M100,34.375V0H34.375C24.87,0,16.764,3.353,10.059,10.059S0,24.87,0,34.375V100h100V34.375z"/>
</g>
</g></g><g transform="translate(84,49) scale(0.07,0.07)"><g transform="" style="fill: rgb(255, 255, 255);">
<g>
	<path d="M100,0H0v100h65.625c9.506,0,17.611-3.354,24.316-10.059S100,75.131,100,65.625V0z"/>
</g>
</g></g><g transform="translate(98,49) scale(0.07,0.07)"><g transform="" style="fill: rgb(255, 255, 255);">
<rect width="100" height="100"/>
</g></g><g transform="translate(133,49) scale(0.07,0.07)"><g transform="" style="fill: rgb(255, 255, 255);">
<polygon points="100,100 50,0 50,0 0,100 "/>
</g></g><g transform="translate(0,56) scale(0.07,0.07)"><g transform="" style="fill: rgb(255, 255, 255);">
<polygon points="100,100 50,0 50,0 0,100 "/>
</g></g><g transform="translate(21,56) scale(0.07,0.07)"><g transform="" style="fill: rgb(255, 255, 255);">
<polygon points="100,100 0,50 0,50 100,0 "/>
</g></g><g transform="translate(28,56) scale(0.07,0.07)"><g transform="" style="fill: rgb(255, 255, 255);">
<rect width="100" height="100"/>
</g></g><g transform="translate(35,56) scale(0.07,0.07)"><g transform="" style="fill: rgb(255, 255, 255);">
<rect width="100" height="100"/>
</g></g><g transform="translate(42,56) scale(0.07,0.07)"><g transform="" style="fill: rgb(255, 255, 255);">
<rect width="100" height="100"/>
</g></g><g transform="translate(49,56) scale(0.07,0.07)"><g transform="" style="fill: rgb(255, 255, 255);">
<rect width="100" height="100"/>
</g></g><g transform="translate(56,56) scale(0.07,0.07)"><g transform="" style="fill: rgb(255, 255, 255);">
<polygon points="0,100 100,50 100,50 0,0 "/>
</g></g><g transform="translate(77,56) scale(0.07,0.07)"><g transform="" style="fill: rgb(255, 255, 255);">
<polygon points="0,-0.001 50,99.999 50,99.999 100,-0.001 "/>
</g></g><g transform="translate(91,56) scale(0.07,0.07)"><g transform="" style="fill: rgb(255, 255, 255);">
<polygon points="100,100 0,50 0,50 100,0 "/>
</g></g><g transform="translate(98,56) scale(0.07,0.07)"><g transform="" style="fill: rgb(255, 255, 255);">
<rect width="100" height="100"/>
</g></g><g transform="translate(105,56) scale(0.07,0.07)"><g transform="" style="fill: rgb(255, 255, 255);">
<rect width="100" height="100"/>
</g></g><g transform="translate(112,56) scale(0.07,0.07)"><g transform="" style="fill: rgb(255, 255, 255);">
<rect width="100" height="100"/>
</g></g><g transform="translate(119,56) scale(0.07,0.07)"><g transform="" style="fill: rgb(255, 255, 255);">
<g>
	<path d="M100,34.375c0-9.505-3.354-17.611-10.059-24.316S75.131,0,65.625,0H0v100h100V34.375z"/>
</g>
</g></g><g transform="translate(133,56) scale(0.07,0.07)"><g transform="" style="fill: rgb(255, 255, 255);">
<rect width="100" height="100"/>
</g></g><g transform="translate(147,56) scale(0.07,0.07)"><g transform="" style="fill: rgb(255, 255, 255);">
<polygon points="99.999,49.999 99.998,49.999 49.999,0 0,49.999 -0.001,49.999 -0.001,50 0,50 49.999,99.999 99.998,50 99.999,50
	99.998,50 "/>
</g></g><g transform="translate(168,56) scale(0.07,0.07)"><g transform="" style="fill: rgb(255, 255, 255);">
<polygon points="100,100 50,0 50,0 0,100 "/>
</g></g><g transform="translate(182,56) scale(0.07,0.07)"><g transform="" style="fill: rgb(255, 255, 255);">
<g>
	<path d="M100,34.375V0H34.375C24.87,0,16.764,3.353,10.059,10.059S0,24.87,0,34.375V100h100V34.375z"/>
</g>
</g></g><g transform="translate(189,56) scale(0.07,0.07)"><g transform="" style="fill: rgb(255, 255, 255);">
<rect width="100" height="100"/>
</g></g><g transform="translate(196,56) scale(0.07,0.07)"><g transform="" style="fill: rgb(255, 255, 255);">
<polygon points="0,100 100,50 100,50 0,0 "/>
</g></g><g transform="translate(0,63) scale(0.07,0.07)"><g transform="" style="fill: rgb(255, 255, 255);">
<rect width="100" height="100"/>
</g></g><g transform="translate(49,63) scale(0.07,0.07)"><g transform="" style="fill: rgb(255, 255, 255);">
<polygon points="0,-0.001 50,99.999 50,99.999 100,-0.001 "/>
</g></g><g transform="translate(63,63) scale(0.07,0.07)"><g transform="" style="fill: rgb(255, 255, 255);">
<polygon points="100,100 0,50 0,50 100,0 "/>
</g></g><g transform="translate(70,63) scale(0.07,0.07)"><g transform="" style="fill: rgb(255, 255, 255);">
<g>
	<path d="M100,34.375c0-9.505-3.354-17.611-10.059-24.316S75.131,0,65.625,0H0v100h100V34.375z"/>
</g>
</g></g><g transform="translate(84,63) scale(0.07,0.07)"><g transform="" style="fill: rgb(255, 255, 255);">
<polygon points="99.999,49.999 99.998,49.999 49.999,0 0,49.999 -0.001,49.999 -0.001,50 0,50 49.999,99.999 99.998,50 99.999,50
	99.998,50 "/>
</g></g><g transform="translate(98,63) scale(0.07,0.07)"><g transform="" style="fill: rgb(255, 255, 255);">
<rect width="100" height="100"/>
</g></g><g transform="translate(119,63) scale(0.07,0.07)"><g transform="" style="fill: rgb(255, 255, 255);">
<rect width="100" height="100"/>
</g></g><g transform="translate(126,63) scale(0.07,0.07)"><g transform="" style="fill: rgb(255, 255, 255);">
<rect width="100" height="100"/>
</g></g><g transform="translate(133,63) scale(0.07,0.07)"><g transform="" style="fill: rgb(255, 255, 255);">
<g>
	<path d="M100,0H0v100h65.625c9.506,0,17.611-3.354,24.316-10.059S100,75.131,100,65.625V0z"/>
</g>
</g></g><g transform="translate(161,63) scale(0.07,0.07)"><g transform="" style="fill: rgb(255, 255, 255);">
<polygon points="100,100 0,50 0,50 100,0 "/>
</g></g><g transform="translate(168,63) scale(0.07,0.07)"><g transform="" style="fill: rgb(255, 255, 255);">
<rect width="100" height="100"/>
</g></g><g transform="translate(182,63) scale(0.07,0.07)"><g transform="" style="fill: rgb(255, 255, 255);">
<rect width="100" height="100"/>
</g></g><g transform="translate(189,63) scale(0.07,0.07)"><g transform="" style="fill: rgb(255, 255, 255);">
<g>
	<path d="M100,0H0v100h65.625c9.506,0,17.611-3.354,24.316-10.059S100,75.131,100,65.625V0z"/>
</g>
</g></g><g transform="translate(0,70) scale(0.07,0.07)"><g transform="" style="fill: rgb(255, 255, 255);">
<polygon points="0,-0.001 50,99.999 50,99.999 100,-0.001 "/>
</g></g><g transform="translate(21,70) scale(0.07,0.07)"><g transform="" style="fill: rgb(255, 255, 255);">
<polygon points="99.999,49.999 99.998,49.999 49.999,0 0,49.999 -0.001,49.999 -0.001,50 0,50 49.999,99.999 99.998,50 99.999,50
	99.998,50 "/>
</g></g><g transform="translate(42,70) scale(0.07,0.07)"><g transform="" style="fill: rgb(255, 255, 255);">
<polygon points="99.999,49.999 99.998,49.999 49.999,0 0,49.999 -0.001,49.999 -0.001,50 0,50 49.999,99.999 99.998,50 99.999,50
	99.998,50 "/>
</g></g><g transform="translate(56,70) scale(0.07,0.07)"><g transform="" style="fill: rgb(255, 255, 255);">
<polygon points="99.999,49.999 99.998,49.999 49.999,0 0,49.999 -0.001,49.999 -0.001,50 0,50 49.999,99.999 99.998,50 99.999,50
	99.998,50 "/>
</g></g><g transform="translate(70,70) scale(0.07,0.07)"><g transform="" style="fill: rgb(255, 255, 255);">
<polygon points="0,-0.001 50,99.999 50,99.999 100,-0.001 "/>
</g></g><g transform="translate(98,70) scale(0.07,0.07)"><g transform="" style="fill: rgb(255, 255, 255);">
<rect width="100" height="100"/>
</g></g><g transform="translate(119,70) scale(0.07,0.07)"><g transform="" style="fill: rgb(255, 255, 255);">
<rect width="100" height="100"/>
</g></g><g transform="translate(140,70) scale(0.07,0.07)"><g transform="" style="fill: rgb(255, 255, 255);">
<g>
	<path d="M100,34.375V0H34.375C24.87,0,16.764,3.353,10.059,10.059S0,24.87,0,34.375V100h100V34.375z"/>
</g>
</g></g><g transform="translate(147,70) scale(0.07,0.07)"><g transform="" style="fill: rgb(255, 255, 255);">
<g>
	<path d="M100,34.375c0-9.505-3.354-17.611-10.059-24.316S75.131,0,65.625,0H0v100h100V34.375z"/>
</g>
</g></g><g transform="translate(168,70) scale(0.07,0.07)"><g transform="" style="fill: rgb(255, 255, 255);">
<polygon points="0,-0.001 50,99.999 50,99.999 100,-0.001 "/>
</g></g><g transform="translate(182,70) scale(0.07,0.07)"><g transform="" style="fill: rgb(255, 255, 255);">
<polygon points="0,-0.001 50,99.999 50,99.999 100,-0.001 "/>
</g></g><g transform="translate(14,77) scale(0.07,0.07)"><g transform="" style="fill: rgb(255, 255, 255);">
<polygon points="99.999,49.999 99.998,49.999 49.999,0 0,49.999 -0.001,49.999 -0.001,50 0,50 49.999,99.999 99.998,50 99.999,50
	99.998,50 "/>
</g></g><g transform="translate(49,77) scale(0.07,0.07)"><g transform="" style="fill: rgb(255, 255, 255);">
<polygon points="100,100 50,0 50,0 0,100 "/>
</g></g><g transform="translate(63,77) scale(0.07,0.07)"><g transform="" style="fill: rgb(255, 255, 255);">
<polygon points="99.999,49.999 99.998,49.999 49.999,0 0,49.999 -0.001,49.999 -0.001,50 0,50 49.999,99.999 99.998,50 99.999,50
	99.998,50 "/>
</g></g><g transform="translate(84,77) scale(0.07,0.07)"><g transform="" style="fill: rgb(255, 255, 255);">
<polygon points="100,100 50,0 50,0 0,100 "/>
</g></g><g transform="translate(98,77) scale(0.07,0.07)"><g transform="" style="fill: rgb(255, 255, 255);">
<rect width="100" height="100"/>
</g></g><g transform="translate(105,77) scale(0.07,0.07)"><g transform="" style="fill: rgb(255, 255, 255);">
<polygon points="0,100 100,50 100,50 0,0 "/>
</g></g><g transform="translate(119,77) scale(0.07,0.07)"><g transform="" style="fill: rgb(255, 255, 255);">
<g>
	<path d="M100,0H0v65.625c0,9.506,3.353,17.611,10.059,24.316S24.87,100,34.375,100H100V0z"/>
</g>
</g></g><g transform="translate(126,77) scale(0.07,0.07)"><g transform="" style="fill: rgb(255, 255, 255);">
<rect width="100" height="100"/>
</g></g><g transform="translate(133,77) scale(0.07,0.07)"><g transform="" style="fill: rgb(255, 255, 255);">
<rect width="100" height="100"/>
</g></g><g transform="translate(140,77) scale(0.07,0.07)"><g transform="" style="fill: rgb(255, 255, 255);">
<rect width="100" height="100"/>
</g></g><g transform="translate(147,77) scale(0.07,0.07)"><g transform="" style="fill: rgb(255, 255, 255);">
<g>
	<path d="M100,0H0v100h65.625c9.506,0,17.611-3.354,24.316-10.059S100,75.131,100,65.625V0z"/>
</g>
</g></g><g transform="translate(161,77) scale(0.07,0.07)"><g transform="" style="fill: rgb(255, 255, 255);">
<polygon points="100,100 50,0 50,0 0,100 "/>
</g></g><g transform="translate(175,77) scale(0.07,0.07)"><g transform="" style="fill: rgb(255, 255, 255);">
<polygon points="99.999,49.999 99.998,49.999 49.999,0 0,49.999 -0.001,49.999 -0.001,50 0,50 49.999,99.999 99.998,50 99.999,50
	99.998,50 "/>
</g></g><g transform="translate(196,77) scale(0.07,0.07)"><g transform="" style="fill: rgb(255, 255, 255);">
<polygon points="100,100 50,0 50,0 0,100 "/>
</g></g><g transform="translate(7,84) scale(0.07,0.07)"><g transform="" style="fill: rgb(255, 255, 255);">
<polygon points="100,100 50,0 50,0 0,100 "/>
</g></g><g transform="translate(35,84) scale(0.07,0.07)"><g transform="" style="fill: rgb(255, 255, 255);">
<g>
	<path d="M100,34.375V0H34.375C24.87,0,16.764,3.353,10.059,10.059S0,24.87,0,34.375V100h100V34.375z"/>
</g>
</g></g><g transform="translate(42,84) scale(0.07,0.07)"><g transform="" style="fill: rgb(255, 255, 255);">
<rect width="100" height="100"/>
</g></g><g transform="translate(49,84) scale(0.07,0.07)"><g transform="" style="fill: rgb(255, 255, 255);">
<rect width="100" height="100"/>
</g></g><g transform="translate(56,84) scale(0.07,0.07)"><g transform="" style="fill: rgb(255, 255, 255);">
<polygon points="0,100 100,50 100,50 0,0 "/>
</g></g><g transform="translate(70,84) scale(0.07,0.07)"><g transform="" style="fill: rgb(255, 255, 255);">
<polygon points="100,100 0,50 0,50 100,0 "/>
</g></g><g transform="translate(77,84) scale(0.07,0.07)"><g transform="" style="fill: rgb(255, 255, 255);">
<rect width="100" height="100"/>
</g></g><g transform="translate(84,84) scale(0.07,0.07)"><g transform="" style="fill: rgb(255, 255, 255);">
<rect width="100" height="100"/>
</g></g><g transform="translate(91,84) scale(0.07,0.07)"><g transform="" style="fill: rgb(255, 255, 255);">
<rect width="100" height="100"/>
</g></g><g transform="translate(98,84) scale(0.07,0.07)"><g transform="" style="fill: rgb(255, 255, 255);">
<g>
	<path d="M100,0H0v100h65.625c9.506,0,17.611-3.354,24.316-10.059S100,75.131,100,65.625V0z"/>
</g>
</g></g><g transform="translate(126,84) scale(0.07,0.07)"><g transform="" style="fill: rgb(255, 255, 255);">
<rect width="100" height="100"/>
</g></g><g transform="translate(133,84) scale(0.07,0.07)"><g transform="" style="fill: rgb(255, 255, 255);">
<g>
	<path d="M100,0H0v100h65.625c9.506,0,17.611-3.354,24.316-10.059S100,75.131,100,65.625V0z"/>
</g>
</g></g><g transform="translate(154,84) scale(0.07,0.07)"><g transform="" style="fill: rgb(255, 255, 255);">
<g>
	<path d="M100,34.375V0H34.375C24.87,0,16.764,3.353,10.059,10.059S0,24.87,0,34.375V100h100V34.375z"/>
</g>
</g></g><g transform="translate(161,84) scale(0.07,0.07)"><g transform="" style="fill: rgb(255, 255, 255);">
<rect width="100" height="100"/>
</g></g><g transform="translate(196,84) scale(0.07,0.07)"><g transform="" style="fill: rgb(255, 255, 255);">
<rect width="100" height="100"/>
</g></g><g transform="translate(0,91) scale(0.07,0.07)"><g transform="" style="fill: rgb(255, 255, 255);">
<g>
	<path d="M100,34.375V0H34.375C24.87,0,16.764,3.353,10.059,10.059S0,24.87,0,34.375V100h100V34.375z"/>
</g>
</g></g><g transform="translate(7,91) scale(0.07,0.07)"><g transform="" style="fill: rgb(255, 255, 255);">
<g>
	<path d="M100,0H0v100h65.625c9.506,0,17.611-3.354,24.316-10.059S100,75.131,100,65.625V0z"/>
</g>
</g></g><g transform="translate(21,91) scale(0.07,0.07)"><g transform="" style="fill: rgb(255, 255, 255);">
<g>
	<path d="M100,34.375V0H34.375C24.87,0,16.764,3.353,10.059,10.059S0,24.87,0,34.375V100h100V34.375z"/>
</g>
</g></g><g transform="translate(28,91) scale(0.07,0.07)"><g transform="" style="fill: rgb(255, 255, 255);">
<rect width="100" height="100"/>
</g></g><g transform="translate(35,91) scale(0.07,0.07)"><g transform="" style="fill: rgb(255, 255, 255);">
<rect width="100" height="100"/>
</g></g><g transform="translate(63,91) scale(0.07,0.07)"><g transform="" style="fill: rgb(255, 255, 255);">
<polygon points="99.999,49.999 99.998,49.999 49.999,0 0,49.999 -0.001,49.999 -0.001,50 0,50 49.999,99.999 99.998,50 99.999,50
	99.998,50 "/>
</g></g><g transform="translate(84,91) scale(0.07,0.07)"><g transform="" style="fill: rgb(255, 255, 255);">
<rect width="100" height="100"/>
</g></g><g transform="translate(119,91) scale(0.07,0.07)"><g transform="" style="fill: rgb(255, 255, 255);">
<g>
	<path d="M100,34.375V0H34.375C24.87,0,16.764,3.353,10.059,10.059S0,24.87,0,34.375V100h100V34.375z"/>
</g>
</g></g><g transform="translate(126,91) scale(0.07,0.07)"><g transform="" style="fill: rgb(255, 255, 255);">
<g>
	<path d="M100,0H0v100h65.625c9.506,0,17.611-3.354,24.316-10.059S100,75.131,100,65.625V0z"/>
</g>
</g></g><g transform="translate(147,91) scale(0.07,0.07)"><g transform="" style="fill: rgb(255, 255, 255);">
<polygon points="100,100 0,50 0,50 100,0 "/>
</g></g><g transform="translate(154,91) scale(0.07,0.07)"><g transform="" style="fill: rgb(255, 255, 255);">
<rect width="100" height="100"/>
</g></g><g transform="translate(161,91) scale(0.07,0.07)"><g transform="" style="fill: rgb(255, 255, 255);">
<rect width="100" height="100"/>
</g></g><g transform="translate(168,91) scale(0.07,0.07)"><g transform="" style="fill: rgb(255, 255, 255);">
<rect width="100" height="100"/>
</g></g><g transform="translate(175,91) scale(0.07,0.07)"><g transform="" style="fill: rgb(255, 255, 255);">
<rect width="100" height="100"/>
</g></g><g transform="translate(182,91) scale(0.07,0.07)"><g transform="" style="fill: rgb(255, 255, 255);">
<rect width="100" height="100"/>
</g></g><g transform="translate(189,91) scale(0.07,0.07)"><g transform="" style="fill: rgb(255, 255, 255);">
<rect width="100" height="100"/>
</g></g><g transform="translate(196,91) scale(0.07,0.07)"><g transform="" style="fill: rgb(255, 255, 255);">
<rect width="100" height="100"/>
</g></g><g transform="translate(0,98) scale(0.07,0.07)"><g transform="" style="fill: rgb(255, 255, 255);">
<polygon points="0,-0.001 50,99.999 50,99.999 100,-0.001 "/>
</g></g><g transform="translate(14,98) scale(0.07,0.07)"><g transform="" style="fill: rgb(255, 255, 255);">
<g>
	<path d="M100,34.375V0H34.375C24.87,0,16.764,3.353,10.059,10.059S0,24.87,0,34.375V100h100V34.375z"/>
</g>
</g></g><g transform="translate(21,98) scale(0.07,0.07)"><g transform="" style="fill: rgb(255, 255, 255);">
<rect width="100" height="100"/>
</g></g><g transform="translate(28,98) scale(0.07,0.07)"><g transform="" style="fill: rgb(255, 255, 255);">
<rect width="100" height="100"/>
</g></g><g transform="translate(35,98) scale(0.07,0.07)"><g transform="" style="fill: rgb(255, 255, 255);">
<rect width="100" height="100"/>
</g></g><g transform="translate(42,98) scale(0.07,0.07)"><g transform="" style="fill: rgb(255, 255, 255);">
<rect width="100" height="100"/>
</g></g><g transform="translate(49,98) scale(0.07,0.07)"><g transform="" style="fill: rgb(255, 255, 255);">
<rect width="100" height="100"/>
</g></g><g transform="translate(56,98) scale(0.07,0.07)"><g transform="" style="fill: rgb(255, 255, 255);">
<g>
	<path d="M100,34.375c0-9.505-3.354-17.611-10.059-24.316S75.131,0,65.625,0H0v100h100V34.375z"/>
</g>
</g></g><g transform="translate(70,98) scale(0.07,0.07)"><g transform="" style="fill: rgb(255, 255, 255);">
<polygon points="99.999,49.999 99.998,49.999 49.999,0 0,49.999 -0.001,49.999 -0.001,50 0,50 49.999,99.999 99.998,50 99.999,50
	99.998,50 "/>
</g></g><g transform="translate(84,98) scale(0.07,0.07)"><g transform="" style="fill: rgb(255, 255, 255);">
<polygon points="0,-0.001 50,99.999 50,99.999 100,-0.001 "/>
</g></g><g transform="translate(98,98) scale(0.07,0.07)"><g transform="" style="fill: rgb(255, 255, 255);">
<g>
	<path d="M100,34.375V0H34.375C24.87,0,16.764,3.353,10.059,10.059S0,24.87,0,34.375V100h100V34.375z"/>
</g>
</g></g><g transform="translate(105,98) scale(0.07,0.07)"><g transform="" style="fill: rgb(255, 255, 255);">
<polygon points="0,100 100,50 100,50 0,0 "/>
</g></g><g transform="translate(119,98) scale(0.07,0.07)"><g transform="" style="fill: rgb(255, 255, 255);">
<polygon points="0,-0.001 50,99.999 50,99.999 100,-0.001 "/>
</g></g><g transform="translate(133,98) scale(0.07,0.07)"><g transform="" style="fill: rgb(255, 255, 255);">
<polygon points="100,100 50,0 50,0 0,100 "/>
</g></g><g transform="translate(154,98) scale(0.07,0.07)"><g transform="" style="fill: rgb(255, 255, 255);">
<rect width="100" height="100"/>
</g></g><g transform="translate(161,98) scale(0.07,0.07)"><g transform="" style="fill: rgb(255, 255, 255);">
<g>
	<path d="M100,0H0v100h65.625c9.506,0,17.611-3.354,24.316-10.059S100,75.131,100,65.625V0z"/>
</g>
</g></g><g transform="translate(182,98) scale(0.07,0.07)"><g transform="" style="fill: rgb(255, 255, 255);">
<rect width="100" height="100"/>
</g></g><g transform="translate(196,98) scale(0.07,0.07)"><g transform="" style="fill: rgb(255, 255, 255);">
<rect width="100" height="100"/>
</g></g><g transform="translate(7,105) scale(0.07,0.07)"><g transform="" style="fill: rgb(255, 255, 255);">
<polygon points="100,100 0,50 0,50 100,0 "/>
</g></g><g transform="translate(14,105) scale(0.07,0.07)"><g transform="" style="fill: rgb(255, 255, 255);">
<rect width="100" height="100"/>
</g></g><g transform="translate(21,105) scale(0.07,0.07)"><g transform="" style="fill: rgb(255, 255, 255);">
<rect width="100" height="100"/>
</g></g><g transform="translate(28,105) scale(0.07,0.07)"><g transform="" style="fill: rgb(255, 255, 255);">
<g>
	<path d="M100,0H0v100h65.625c9.506,0,17.611-3.354,24.316-10.059S100,75.131,100,65.625V0z"/>
</g>
</g></g><g transform="translate(56,105) scale(0.07,0.07)"><g transform="" style="fill: rgb(255, 255, 255);">
<polygon points="0,-0.001 50,99.999 50,99.999 100,-0.001 "/>
</g></g><g transform="translate(91,105) scale(0.07,0.07)"><g transform="" style="fill: rgb(255, 255, 255);">
<polygon points="100,100 0,50 0,50 100,0 "/>
</g></g><g transform="translate(98,105) scale(0.07,0.07)"><g transform="" style="fill: rgb(255, 255, 255);">
<g>
	<path d="M100,0H0v100h65.625c9.506,0,17.611-3.354,24.316-10.059S100,75.131,100,65.625V0z"/>
</g>
</g></g><g transform="translate(112,105) scale(0.07,0.07)"><g transform="" style="fill: rgb(255, 255, 255);">
<polygon points="99.999,49.999 99.998,49.999 49.999,0 0,49.999 -0.001,49.999 -0.001,50 0,50 49.999,99.999 99.998,50 99.999,50
	99.998,50 "/>
</g></g><g transform="translate(126,105) scale(0.07,0.07)"><g transform="" style="fill: rgb(255, 255, 255);">
<polygon points="100,100 0,50 0,50 100,0 "/>
</g></g><g transform="translate(133,105) scale(0.07,0.07)"><g transform="" style="fill: rgb(255, 255, 255);">
<rect width="100" height="100"/>
</g></g><g transform="translate(154,105) scale(0.07,0.07)"><g transform="" style="fill: rgb(255, 255, 255);">
<polygon points="0,-0.001 50,99.999 50,99.999 100,-0.001 "/>
</g></g><g transform="translate(168,105) scale(0.07,0.07)"><g transform="" style="fill: rgb(255, 255, 255);">
<polygon points="99.999,49.999 99.998,49.999 49.999,0 0,49.999 -0.001,49.999 -0.001,50 0,50 49.999,99.999 99.998,50 99.999,50
	99.998,50 "/>
</g></g><g transform="translate(182,105) scale(0.07,0.07)"><g transform="" style="fill: rgb(255, 255, 255);">
<polygon points="0,-0.001 50,99.999 50,99.999 100,-0.001 "/>
</g></g><g transform="translate(196,105) scale(0.07,0.07)"><g transform="" style="fill: rgb(255, 255, 255);">
<polygon points="0,-0.001 50,99.999 50,99.999 100,-0.001 "/>
</g></g><g transform="translate(0,112) scale(0.07,0.07)"><g transform="" style="fill: rgb(255, 255, 255);">
<polygon points="100,100 50,0 50,0 0,100 "/>
</g></g><g transform="translate(42,112) scale(0.07,0.07)"><g transform="" style="fill: rgb(255, 255, 255);">
<polygon points="99.999,49.999 99.998,49.999 49.999,0 0,49.999 -0.001,49.999 -0.001,50 0,50 49.999,99.999 99.998,50 99.999,50
	99.998,50 "/>
</g></g><g transform="translate(70,112) scale(0.07,0.07)"><g transform="" style="fill: rgb(255, 255, 255);">
<polygon points="100,100 50,0 50,0 0,100 "/>
</g></g><g transform="translate(84,112) scale(0.07,0.07)"><g transform="" style="fill: rgb(255, 255, 255);">
<polygon points="100,100 50,0 50,0 0,100 "/>
</g></g><g transform="translate(105,112) scale(0.07,0.07)"><g transform="" style="fill: rgb(255, 255, 255);">
<polygon points="99.999,49.999 99.998,49.999 49.999,0 0,49.999 -0.001,49.999 -0.001,50 0,50 49.999,99.999 99.998,50 99.999,50
	99.998,50 "/>
</g></g><g transform="translate(133,112) scale(0.07,0.07)"><g transform="" style="fill: rgb(255, 255, 255);">
<rect width="100" height="100"/>
</g></g><g transform="translate(140,112) scale(0.07,0.07)"><g transform="" style="fill: rgb(255, 255, 255);">
<polygon points="0,100 100,50 100,50 0,0 "/>
</g></g><g transform="translate(175,112) scale(0.07,0.07)"><g transform="" style="fill: rgb(255, 255, 255);">
<polygon points="99.999,49.999 99.998,49.999 49.999,0 0,49.999 -0.001,49.999 -0.001,50 0,50 49.999,99.999 99.998,50 99.999,50
	99.998,50 "/>
</g></g><g transform="translate(0,119) scale(0.07,0.07)"><g transform="" style="fill: rgb(255, 255, 255);">
<rect width="100" height="100"/>
</g></g><g transform="translate(14,119) scale(0.07,0.07)"><g transform="" style="fill: rgb(255, 255, 255);">
<g>
	<path d="M100,34.375V0H34.375C24.87,0,16.764,3.353,10.059,10.059S0,24.87,0,34.375V100h100V34.375z"/>
</g>
</g></g><g transform="translate(21,119) scale(0.07,0.07)"><g transform="" style="fill: rgb(255, 255, 255);">
<rect width="100" height="100"/>
</g></g><g transform="translate(28,119) scale(0.07,0.07)"><g transform="" style="fill: rgb(255, 255, 255);">
<g>
	<path d="M100,34.375c0-9.505-3.354-17.611-10.059-24.316S75.131,0,65.625,0H0v100h100V34.375z"/>
</g>
</g></g><g transform="translate(63,119) scale(0.07,0.07)"><g transform="" style="fill: rgb(255, 255, 255);">
<g>
	<path d="M100,34.375V0H34.375C24.87,0,16.764,3.353,10.059,10.059S0,24.87,0,34.375V100h100V34.375z"/>
</g>
</g></g><g transform="translate(70,119) scale(0.07,0.07)"><g transform="" style="fill: rgb(255, 255, 255);">
<rect width="100" height="100"/>
</g></g><g transform="translate(84,119) scale(0.07,0.07)"><g transform="" style="fill: rgb(255, 255, 255);">
<polygon points="0,-0.001 50,99.999 50,99.999 100,-0.001 "/>
</g></g><g transform="translate(119,119) scale(0.07,0.07)"><g transform="" style="fill: rgb(255, 255, 255);">
<g>
	<path d="M100,34.375V0H34.375C24.87,0,16.764,3.353,10.059,10.059S0,24.87,0,34.375V100h100V34.375z"/>
</g>
</g></g><g transform="translate(126,119) scale(0.07,0.07)"><g transform="" style="fill: rgb(255, 255, 255);">
<rect width="100" height="100"/>
</g></g><g transform="translate(133,119) scale(0.07,0.07)"><g transform="" style="fill: rgb(255, 255, 255);">
<rect width="100" height="100"/>
</g></g><g transform="translate(168,119) scale(0.07,0.07)"><g transform="" style="fill: rgb(255, 255, 255);">
<polygon points="100,100 50,0 50,0 0,100 "/>
</g></g><g transform="translate(182,119) scale(0.07,0.07)"><g transform="" style="fill: rgb(255, 255, 255);">
<polygon points="100,100 0,50 0,50 100,0 "/>
</g></g><g transform="translate(189,119) scale(0.07,0.07)"><g transform="" style="fill: rgb(255, 255, 255);">
<polygon points="0,100 100,50 100,50 0,0 "/>
</g></g><g transform="translate(0,126) scale(0.07,0.07)"><g transform="" style="fill: rgb(255, 255, 255);">
<rect width="100" height="100"/>
</g></g><g transform="translate(7,126) scale(0.07,0.07)"><g transform="" style="fill: rgb(255, 255, 255);">
<rect width="100" height="100"/>
</g></g><g transform="translate(14,126) scale(0.07,0.07)"><g transform="" style="fill: rgb(255, 255, 255);">
<rect width="100" height="100"/>
</g></g><g transform="translate(21,126) scale(0.07,0.07)"><g transform="" style="fill: rgb(255, 255, 255);">
<rect width="100" height="100"/>
</g></g><g transform="translate(28,126) scale(0.07,0.07)"><g transform="" style="fill: rgb(255, 255, 255);">
<rect width="100" height="100"/>
</g></g><g transform="translate(35,126) scale(0.07,0.07)"><g transform="" style="fill: rgb(255, 255, 255);">
<rect width="100" height="100"/>
</g></g><g transform="translate(42,126) scale(0.07,0.07)"><g transform="" style="fill: rgb(255, 255, 255);">
<polygon points="0,100 100,50 100,50 0,0 "/>
</g></g><g transform="translate(56,126) scale(0.07,0.07)"><g transform="" style="fill: rgb(255, 255, 255);">
<g>
	<path d="M100,34.375V0H34.375C24.87,0,16.764,3.353,10.059,10.059S0,24.87,0,34.375V100h100V34.375z"/>
</g>
</g></g><g transform="translate(63,126) scale(0.07,0.07)"><g transform="" style="fill: rgb(255, 255, 255);">
<rect width="100" height="100"/>
</g></g><g transform="translate(70,126) scale(0.07,0.07)"><g transform="" style="fill: rgb(255, 255, 255);">
<rect width="100" height="100"/>
</g></g><g transform="translate(77,126) scale(0.07,0.07)"><g transform="" style="fill: rgb(255, 255, 255);">
<polygon points="0,100 100,50 100,50 0,0 "/>
</g></g><g transform="translate(91,126) scale(0.07,0.07)"><g transform="" style="fill: rgb(255, 255, 255);">
<g>
	<path d="M100,34.375V0H34.375C24.87,0,16.764,3.353,10.059,10.059S0,24.87,0,34.375V100h100V34.375z"/>
</g>
</g></g><g transform="translate(98,126) scale(0.07,0.07)"><g transform="" style="fill: rgb(255, 255, 255);">
<polygon points="0,100 100,50 100,50 0,0 "/>
</g></g><g transform="translate(112,126) scale(0.07,0.07)"><g transform="" style="fill: rgb(255, 255, 255);">
<g>
	<path d="M100,34.375V0H34.375C24.87,0,16.764,3.353,10.059,10.059S0,24.87,0,34.375V100h100V34.375z"/>
</g>
</g></g><g transform="translate(119,126) scale(0.07,0.07)"><g transform="" style="fill: rgb(255, 255, 255);">
<rect width="100" height="100"/>
</g></g><g transform="translate(126,126) scale(0.07,0.07)"><g transform="" style="fill: rgb(255, 255, 255);">
<rect width="100" height="100"/>
</g></g><g transform="translate(133,126) scale(0.07,0.07)"><g transform="" style="fill: rgb(255, 255, 255);">
<rect width="100" height="100"/>
</g></g><g transform="translate(147,126) scale(0.07,0.07)"><g transform="" style="fill: rgb(255, 255, 255);">
<g>
	<path d="M100,34.375V0H34.375C24.87,0,16.764,3.353,10.059,10.059S0,24.87,0,34.375V100h100V34.375z"/>
</g>
</g></g><g transform="translate(154,126) scale(0.07,0.07)"><g transform="" style="fill: rgb(255, 255, 255);">
<polygon points="0,100 100,50 100,50 0,0 "/>
</g></g><g transform="translate(168,126) scale(0.07,0.07)"><g transform="" style="fill: rgb(255, 255, 255);">
<rect width="100" height="100"/>
</g></g><g transform="translate(175,126) scale(0.07,0.07)"><g transform="" style="fill: rgb(255, 255, 255);">
<g>
	<path d="M100,34.375c0-9.505-3.354-17.611-10.059-24.316S75.131,0,65.625,0H0v100h100V34.375z"/>
</g>
</g></g><g transform="translate(196,126) scale(0.07,0.07)"><g transform="" style="fill: rgb(255, 255, 255);">
<polygon points="99.999,49.999 99.998,49.999 49.999,0 0,49.999 -0.001,49.999 -0.001,50 0,50 49.999,99.999 99.998,50 99.999,50
	99.998,50 "/>
</g></g><g transform="translate(0,133) scale(0.07,0.07)"><g transform="" style="fill: rgb(255, 255, 255);">
<rect width="100" height="100"/>
</g></g><g transform="translate(7,133) scale(0.07,0.07)"><g transform="" style="fill: rgb(255, 255, 255);">
<rect width="100" height="100"/>
</g></g><g transform="translate(14,133) scale(0.07,0.07)"><g transform="" style="fill: rgb(255, 255, 255);">
<rect width="100" height="100"/>
</g></g><g transform="translate(21,133) scale(0.07,0.07)"><g transform="" style="fill: rgb(255, 255, 255);">
<rect width="100" height="100"/>
</g></g><g transform="translate(28,133) scale(0.07,0.07)"><g transform="" style="fill: rgb(255, 255, 255);">
<rect width="100" height="100"/>
</g></g><g transform="translate(56,133) scale(0.07,0.07)"><g transform="" style="fill: rgb(255, 255, 255);">
<polygon points="0,-0.001 50,99.999 50,99.999 100,-0.001 "/>
</g></g><g transform="translate(84,133) scale(0.07,0.07)"><g transform="" style="fill: rgb(255, 255, 255);">
<g>
	<path d="M100,34.375V0H34.375C24.87,0,16.764,3.353,10.059,10.059S0,24.87,0,34.375V100h100V34.375z"/>
</g>
</g></g><g transform="translate(91,133) scale(0.07,0.07)"><g transform="" style="fill: rgb(255, 255, 255);">
<rect width="100" height="100"/>
</g></g><g transform="translate(105,133) scale(0.07,0.07)"><g transform="" style="fill: rgb(255, 255, 255);">
<polygon points="100,100 0,50 0,50 100,0 "/>
</g></g><g transform="translate(112,133) scale(0.07,0.07)"><g transform="" style="fill: rgb(255, 255, 255);">
<g>
	<path d="M100,0H0v100h65.625c9.506,0,17.611-3.354,24.316-10.059S100,75.131,100,65.625V0z"/>
</g>
</g></g><g transform="translate(133,133) scale(0.07,0.07)"><g transform="" style="fill: rgb(255, 255, 255);">
<rect width="100" height="100"/>
</g></g><g transform="translate(147,133) scale(0.07,0.07)"><g transform="" style="fill: rgb(255, 255, 255);">
<rect width="100" height="100"/>
</g></g><g transform="translate(161,133) scale(0.07,0.07)"><g transform="" style="fill: rgb(255, 255, 255);">
<g>
	<path d="M100,34.375V0H34.375C24.87,0,16.764,3.353,10.059,10.059S0,24.87,0,34.375V100h100V34.375z"/>
</g>
</g></g><g transform="translate(168,133) scale(0.07,0.07)"><g transform="" style="fill: rgb(255, 255, 255);">
<rect width="100" height="100"/>
</g></g><g transform="translate(175,133) scale(0.07,0.07)"><g transform="" style="fill: rgb(255, 255, 255);">
<rect width="100" height="100"/>
</g></g><g transform="translate(182,133) scale(0.07,0.07)"><g transform="" style="fill: rgb(255, 255, 255);">
<g>
	<path d="M100,34.375c0-9.505-3.354-17.611-10.059-24.316S75.131,0,65.625,0H0v100h100V34.375z"/>
</g>
</g></g><g transform="translate(0,140) scale(0.07,0.07)"><g transform="" style="fill: rgb(255, 255, 255);">
<g>
	<path d="M100,0H0v65.625c0,9.506,3.353,17.611,10.059,24.316S24.87,100,34.375,100H100V0z"/>
</g>
</g></g><g transform="translate(7,140) scale(0.07,0.07)"><g transform="" style="fill: rgb(255, 255, 255);">
<g>
	<path d="M100,0H0v100h65.625c9.506,0,17.611-3.354,24.316-10.059S100,75.131,100,65.625V0z"/>
</g>
</g></g><g transform="translate(21,140) scale(0.07,0.07)"><g transform="" style="fill: rgb(255, 255, 255);">
<g>
	<path d="M100,0H0v65.625c0,9.506,3.353,17.611,10.059,24.316S24.87,100,34.375,100H100V0z"/>
</g>
</g></g><g transform="translate(28,140) scale(0.07,0.07)"><g transform="" style="fill: rgb(255, 255, 255);">
<rect width="100" height="100"/>
</g></g><g transform="translate(35,140) scale(0.07,0.07)"><g transform="" style="fill: rgb(255, 255, 255);">
<rect width="100" height="100"/>
</g></g><g transform="translate(42,140) scale(0.07,0.07)"><g transform="" style="fill: rgb(255, 255, 255);">
<polygon points="0,100 100,50 100,50 0,0 "/>
</g></g><g transform="translate(63,140) scale(0.07,0.07)"><g transform="" style="fill: rgb(255, 255, 255);">
<polygon points="99.999,49.999 99.998,49.999 49.999,0 0,49.999 -0.001,49.999 -0.001,50 0,50 49.999,99.999 99.998,50 99.999,50
	99.998,50 "/>
</g></g><g transform="translate(84,140) scale(0.07,0.07)"><g transform="" style="fill: rgb(255, 255, 255);">
<g>
	<path d="M100,0H0v65.625c0,9.506,3.353,17.611,10.059,24.316S24.87,100,34.375,100H100V0z"/>
</g>
</g></g><g transform="translate(91,140) scale(0.07,0.07)"><g transform="" style="fill: rgb(255, 255, 255);">
<rect width="100" height="100"/>
</g></g><g transform="translate(119,140) scale(0.07,0.07)"><g transform="" style="fill: rgb(255, 255, 255);">
<polygon points="99.999,49.999 99.998,49.999 49.999,0 0,49.999 -0.001,49.999 -0.001,50 0,50 49.999,99.999 99.998,50 99.999,50
	99.998,50 "/>
</g></g><g transform="translate(133,140) scale(0.07,0.07)"><g transform="" style="fill: rgb(255, 255, 255);">
<g>
	<path d="M100,0H0v65.625c0,9.506,3.353,17.611,10.059,24.316S24.87,100,34.375,100H100V0z"/>
</g>
</g></g><g transform="translate(140,140) scale(0.07,0.07)"><g transform="" style="fill: rgb(255, 255, 255);">
<rect width="100" height="100"/>
</g></g><g transform="translate(147,140) scale(0.07,0.07)"><g transform="" style="fill: rgb(255, 255, 255);">
<rect width="100" height="100"/>
</g></g><g transform="translate(154,140) scale(0.07,0.07)"><g transform="" style="fill: rgb(255, 255, 255);">
<rect width="100" height="100"/>
</g></g><g transform="translate(161,140) scale(0.07,0.07)"><g transform="" style="fill: rgb(255, 255, 255);">
<rect width="100" height="100"/>
</g></g><g transform="translate(168,140) scale(0.07,0.07)"><g transform="" style="fill: rgb(255, 255, 255);">
<rect width="100" height="100"/>
</g></g><g transform="translate(175,140) scale(0.07,0.07)"><g transform="" style="fill: rgb(255, 255, 255);">
<rect width="100" height="100"/>
</g></g><g transform="translate(182,140) scale(0.07,0.07)"><g transform="" style="fill: rgb(255, 255, 255);">
<rect width="100" height="100"/>
</g></g><g transform="translate(189,140) scale(0.07,0.07)"><g transform="" style="fill: rgb(255, 255, 255);">
<polygon points="0,100 100,50 100,50 0,0 "/>
</g></g><g transform="translate(56,147) scale(0.07,0.07)"><g transform="" style="fill: rgb(255, 255, 255);">
<polygon points="100,100 50,0 50,0 0,100 "/>
</g></g><g transform="translate(91,147) scale(0.07,0.07)"><g transform="" style="fill: rgb(255, 255, 255);">
<rect width="100" height="100"/>
</g></g><g transform="translate(112,147) scale(0.07,0.07)"><g transform="" style="fill: rgb(255, 255, 255);">
<polygon points="100,100 50,0 50,0 0,100 "/>
</g></g><g transform="translate(140,147) scale(0.07,0.07)"><g transform="" style="fill: rgb(255, 255, 255);">
<rect width="100" height="100"/>
</g></g><g transform="translate(168,147) scale(0.07,0.07)"><g transform="" style="fill: rgb(255, 255, 255);">
<rect width="100" height="100"/>
</g></g><g transform="translate(175,147) scale(0.07,0.07)"><g transform="" style="fill: rgb(255, 255, 255);">
<rect width="100" height="100"/>
</g></g><g transform="translate(56,154) scale(0.07,0.07)"><g transform="" style="fill: rgb(255, 255, 255);">
<rect width="100" height="100"/>
</g></g><g transform="translate(63,154) scale(0.07,0.07)"><g transform="" style="fill: rgb(255, 255, 255);">
<g>
	<path d="M100,34.375c0-9.505-3.354-17.611-10.059-24.316S75.131,0,65.625,0H0v100h100V34.375z"/>
</g>
</g></g><g transform="translate(77,154) scale(0.07,0.07)"><g transform="" style="fill: rgb(255, 255, 255);">
<polygon points="100,100 50,0 50,0 0,100 "/>
</g></g><g transform="translate(91,154) scale(0.07,0.07)"><g transform="" style="fill: rgb(255, 255, 255);">
<rect width="100" height="100"/>
</g></g><g transform="translate(105,154) scale(0.07,0.07)"><g transform="" style="fill: rgb(255, 255, 255);">
<polygon points="100,100 0,50 0,50 100,0 "/>
</g></g><g transform="translate(112,154) scale(0.07,0.07)"><g transform="" style="fill: rgb(255, 255, 255);">
<rect width="100" height="100"/>
</g></g><g transform="translate(119,154) scale(0.07,0.07)"><g transform="" style="fill: rgb(255, 255, 255);">
<rect width="100" height="100"/>
</g></g><g transform="translate(126,154) scale(0.07,0.07)"><g transform="" style="fill: rgb(255, 255, 255);">
<rect width="100" height="100"/>
</g></g><g transform="translate(133,154) scale(0.07,0.07)"><g transform="" style="fill: rgb(255, 255, 255);">
<rect width="100" height="100"/>
</g></g><g transform="translate(140,154) scale(0.07,0.07)"><g transform="" style="fill: rgb(255, 255, 255);">
<rect width="100" height="100"/>
</g></g><g transform="translate(154,154) scale(0.07,0.07)"><g transform="" style="fill: rgb(255, 255, 255);">
<polygon points="99.999,49.999 99.998,49.999 49.999,0 0,49.999 -0.001,49.999 -0.001,50 0,50 49.999,99.999 99.998,50 99.999,50
	99.998,50 "/>
</g></g><g transform="translate(168,154) scale(0.07,0.07)"><g transform="" style="fill: rgb(255, 255, 255);">
<rect width="100" height="100"/>
</g></g><g transform="translate(175,154) scale(0.07,0.07)"><g transform="" style="fill: rgb(255, 255, 255);">
<g>
	<path d="M100,0H0v100h65.625c9.506,0,17.611-3.354,24.316-10.059S100,75.131,100,65.625V0z"/>
</g>
</g></g><g transform="translate(56,161) scale(0.07,0.07)"><g transform="" style="fill: rgb(255, 255, 255);">
<rect width="100" height="100"/>
</g></g><g transform="translate(63,161) scale(0.07,0.07)"><g transform="" style="fill: rgb(255, 255, 255);">
<rect width="100" height="100"/>
</g></g><g transform="translate(77,161) scale(0.07,0.07)"><g transform="" style="fill: rgb(255, 255, 255);">
<g>
	<path d="M100,0H0v65.625c0,9.506,3.353,17.611,10.059,24.316S24.87,100,34.375,100H100V0z"/>
</g>
</g></g><g transform="translate(84,161) scale(0.07,0.07)"><g transform="" style="fill: rgb(255, 255, 255);">
<rect width="100" height="100"/>
</g></g><g transform="translate(91,161) scale(0.07,0.07)"><g transform="" style="fill: rgb(255, 255, 255);">
<rect width="100" height="100"/>
</g></g><g transform="translate(112,161) scale(0.07,0.07)"><g transform="" style="fill: rgb(255, 255, 255);">
<rect width="100" height="100"/>
</g></g><g transform="translate(119,161) scale(0.07,0.07)"><g transform="" style="fill: rgb(255, 255, 255);">
<rect width="100" height="100"/>
</g></g><g transform="translate(126,161) scale(0.07,0.07)"><g transform="" style="fill: rgb(255, 255, 255);">
<rect width="100" height="100"/>
</g></g><g transform="translate(133,161) scale(0.07,0.07)"><g transform="" style="fill: rgb(255, 255, 255);">
<rect width="100" height="100"/>
</g></g><g transform="translate(140,161) scale(0.07,0.07)"><g transform="" style="fill: rgb(255, 255, 255);">
<rect width="100" height="100"/>
</g></g><g transform="translate(168,161) scale(0.07,0.07)"><g transform="" style="fill: rgb(255, 255, 255);">
<rect width="100" height="100"/>
</g></g><g transform="translate(189,161) scale(0.07,0.07)"><g transform="" style="fill: rgb(255, 255, 255);">
<polygon points="100,100 0,50 0,50 100,0 "/>
</g></g><g transform="translate(196,161) scale(0.07,0.07)"><g transform="" style="fill: rgb(255, 255, 255);">
<polygon points="0,100 100,50 100,50 0,0 "/>
</g></g><g transform="translate(56,168) scale(0.07,0.07)"><g transform="" style="fill: rgb(255, 255, 255);">
<rect width="100" height="100"/>
</g></g><g transform="translate(63,168) scale(0.07,0.07)"><g transform="" style="fill: rgb(255, 255, 255);">
<g>
	<path d="M100,0H0v100h65.625c9.506,0,17.611-3.354,24.316-10.059S100,75.131,100,65.625V0z"/>
</g>
</g></g><g transform="translate(91,168) scale(0.07,0.07)"><g transform="" style="fill: rgb(255, 255, 255);">
<rect width="100" height="100"/>
</g></g><g transform="translate(105,168) scale(0.07,0.07)"><g transform="" style="fill: rgb(255, 255, 255);">
<polygon points="100,100 0,50 0,50 100,0 "/>
</g></g><g transform="translate(112,168) scale(0.07,0.07)"><g transform="" style="fill: rgb(255, 255, 255);">
<rect width="100" height="100"/>
</g></g><g transform="translate(133,168) scale(0.07,0.07)"><g transform="" style="fill: rgb(255, 255, 255);">
<rect width="100" height="100"/>
</g></g><g transform="translate(140,168) scale(0.07,0.07)"><g transform="" style="fill: rgb(255, 255, 255);">
<rect width="100" height="100"/>
</g></g><g transform="translate(147,168) scale(0.07,0.07)"><g transform="" style="fill: rgb(255, 255, 255);">
<rect width="100" height="100"/>
</g></g><g transform="translate(154,168) scale(0.07,0.07)"><g transform="" style="fill: rgb(255, 255, 255);">
<rect width="100" height="100"/>
</g></g><g transform="translate(161,168) scale(0.07,0.07)"><g transform="" style="fill: rgb(255, 255, 255);">
<rect width="100" height="100"/>
</g></g><g transform="translate(168,168) scale(0.07,0.07)"><g transform="" style="fill: rgb(255, 255, 255);">
<rect width="100" height="100"/>
</g></g><g transform="translate(175,168) scale(0.07,0.07)"><g transform="" style="fill: rgb(255, 255, 255);">
<polygon points="0,100 100,50 100,50 0,0 "/>
</g></g><g transform="translate(56,175) scale(0.07,0.07)"><g transform="" style="fill: rgb(255, 255, 255);">
<polygon points="0,-0.001 50,99.999 50,99.999 100,-0.001 "/>
</g></g><g transform="translate(70,175) scale(0.07,0.07)"><g transform="" style="fill: rgb(255, 255, 255);">
<g>
	<path d="M100,34.375V0H34.375C24.87,0,16.764,3.353,10.059,10.059S0,24.87,0,34.375V100h100V34.375z"/>
</g>
</g></g><g transform="translate(77,175) scale(0.07,0.07)"><g transform="" style="fill: rgb(255, 255, 255);">
<polygon points="0,100 100,50 100,50 0,0 "/>
</g></g><g transform="translate(91,175) scale(0.07,0.07)"><g transform="" style="fill: rgb(255, 255, 255);">
<rect width="100" height="100"/>
</g></g><g transform="translate(98,175) scale(0.07,0.07)"><g transform="" style="fill: rgb(255, 255, 255);">
<polygon points="0,100 100,50 100,50 0,0 "/>
</g></g><g transform="translate(112,175) scale(0.07,0.07)"><g transform="" style="fill: rgb(255, 255, 255);">
<rect width="100" height="100"/>
</g></g><g transform="translate(133,175) scale(0.07,0.07)"><g transform="" style="fill: rgb(255, 255, 255);">
<g>
	<path d="M100,0H0v65.625c0,9.506,3.353,17.611,10.059,24.316S24.87,100,34.375,100H100V0z"/>
</g>
</g></g><g transform="translate(140,175) scale(0.07,0.07)"><g transform="" style="fill: rgb(255, 255, 255);">
<rect width="100" height="100"/>
</g></g><g transform="translate(147,175) scale(0.07,0.07)"><g transform="" style="fill: rgb(255, 255, 255);">
<g>
	<path d="M100,0H0v100h65.625c9.506,0,17.611-3.354,24.316-10.059S100,75.131,100,65.625V0z"/>
</g>
</g></g><g transform="translate(161,175) scale(0.07,0.07)"><g transform="" style="fill: rgb(255, 255, 255);">
<rect width="100" height="100"/>
</g></g><g transform="translate(189,175) scale(0.07,0.07)"><g transform="" style="fill: rgb(255, 255, 255);">
<polygon points="100,100 50,0 50,0 0,100 "/>
</g></g><g transform="translate(63,182) scale(0.07,0.07)"><g transform="" style="fill: rgb(255, 255, 255);">
<g>
	<path d="M100,34.375V0H34.375C24.87,0,16.764,3.353,10.059,10.059S0,24.87,0,34.375V100h100V34.375z"/>
</g>
</g></g><g transform="translate(70,182) scale(0.07,0.07)"><g transform="" style="fill: rgb(255, 255, 255);">
<g>
	<path d="M100,0H0v100h65.625c9.506,0,17.611-3.354,24.316-10.059S100,75.131,100,65.625V0z"/>
</g>
</g></g><g transform="translate(84,182) scale(0.07,0.07)"><g transform="" style="fill: rgb(255, 255, 255);">
<g>
	<path d="M100,34.375V0H34.375C24.87,0,16.764,3.353,10.059,10.059S0,24.87,0,34.375V100h100V34.375z"/>
</g>
</g></g><g transform="translate(91,182) scale(0.07,0.07)"><g transform="" style="fill: rgb(255, 255, 255);">
<rect width="100" height="100"/>
</g></g><g transform="translate(112,182) scale(0.07,0.07)"><g transform="" style="fill: rgb(255, 255, 255);">
<polygon points="0,-0.001 50,99.999 50,99.999 100,-0.001 "/>
</g></g><g transform="translate(126,182) scale(0.07,0.07)"><g transform="" style="fill: rgb(255, 255, 255);">
<polygon points="100,100 50,0 50,0 0,100 "/>
</g></g><g transform="translate(161,182) scale(0.07,0.07)"><g transform="" style="fill: rgb(255, 255, 255);">
<rect width="100" height="100"/>
</g></g><g transform="translate(168,182) scale(0.07,0.07)"><g transform="" style="fill: rgb(255, 255, 255);">
<g>
	<path d="M100,34.375c0-9.505-3.354-17.611-10.059-24.316S75.131,0,65.625,0H0v100h100V34.375z"/>
</g>
</g></g><g transform="translate(182,182) scale(0.07,0.07)"><g transform="" style="fill: rgb(255, 255, 255);">
<g>
	<path d="M100,34.375V0H34.375C24.87,0,16.764,3.353,10.059,10.059S0,24.87,0,34.375V100h100V34.375z"/>
</g>
</g></g><g transform="translate(189,182) scale(0.07,0.07)"><g transform="" style="fill: rgb(255, 255, 255);">
<rect width="100" height="100"/>
</g></g><g transform="translate(196,182) scale(0.07,0.07)"><g transform="" style="fill: rgb(255, 255, 255);">
<g>
	<path d="M100,34.375c0-9.505-3.354-17.611-10.059-24.316S75.131,0,65.625,0H0v100h100V34.375z"/>
</g>
</g></g><g transform="translate(63,189) scale(0.07,0.07)"><g transform="" style="fill: rgb(255, 255, 255);">
<rect width="100" height="100"/>
</g></g><g transform="translate(84,189) scale(0.07,0.07)"><g transform="" style="fill: rgb(255, 255, 255);">
<rect width="100" height="100"/>
</g></g><g transform="translate(91,189) scale(0.07,0.07)"><g transform="" style="fill: rgb(255, 255, 255);">
<rect width="100" height="100"/>
</g></g><g transform="translate(105,189) scale(0.07,0.07)"><g transform="" style="fill: rgb(255, 255, 255);">
<polygon points="99.999,49.999 99.998,49.999 49.999,0 0,49.999 -0.001,49.999 -0.001,50 0,50 49.999,99.999 99.998,50 99.999,50
	99.998,50 "/>
</g></g><g transform="translate(126,189) scale(0.07,0.07)"><g transform="" style="fill: rgb(255, 255, 255);">
<rect width="100" height="100"/>
</g></g><g transform="translate(133,189) scale(0.07,0.07)"><g transform="" style="fill: rgb(255, 255, 255);">
<g>
	<path d="M100,34.375c0-9.505-3.354-17.611-10.059-24.316S75.131,0,65.625,0H0v100h100V34.375z"/>
</g>
</g></g><g transform="translate(154,189) scale(0.07,0.07)"><g transform="" style="fill: rgb(255, 255, 255);">
<g>
	<path d="M100,34.375V0H34.375C24.87,0,16.764,3.353,10.059,10.059S0,24.87,0,34.375V100h100V34.375z"/>
</g>
</g></g><g transform="translate(161,189) scale(0.07,0.07)"><g transform="" style="fill: rgb(255, 255, 255);">
<rect width="100" height="100"/>
</g></g><g transform="translate(168,189) scale(0.07,0.07)"><g transform="" style="fill: rgb(255, 255, 255);">
<rect width="100" height="100"/>
</g></g><g transform="translate(175,189) scale(0.07,0.07)"><g transform="" style="fill: rgb(255, 255, 255);">
<rect width="100" height="100"/>
</g></g><g transform="translate(182,189) scale(0.07,0.07)"><g transform="" style="fill: rgb(255, 255, 255);">
<g>
	<path d="M100,0H0v100h65.625c9.506,0,17.611-3.354,24.316-10.059S100,75.131,100,65.625V0z"/>
</g>
</g></g><g transform="translate(196,189) scale(0.07,0.07)"><g transform="" style="fill: rgb(255, 255, 255);">
<polygon points="0,-0.001 50,99.999 50,99.999 100,-0.001 "/>
</g></g><g transform="translate(56,196) scale(0.07,0.07)"><g transform="" style="fill: rgb(255, 255, 255);">
<polygon points="100,100 0,50 0,50 100,0 "/>
</g></g><g transform="translate(63,196) scale(0.07,0.07)"><g transform="" style="fill: rgb(255, 255, 255);">
<g>
	<path d="M100,0H0v100h65.625c9.506,0,17.611-3.354,24.316-10.059S100,75.131,100,65.625V0z"/>
</g>
</g></g><g transform="translate(84,196) scale(0.07,0.07)"><g transform="" style="fill: rgb(255, 255, 255);">
<g>
	<path d="M100,0H0v65.625c0,9.506,3.353,17.611,10.059,24.316S24.87,100,34.375,100H100V0z"/>
</g>
</g></g><g transform="translate(91,196) scale(0.07,0.07)"><g transform="" style="fill: rgb(255, 255, 255);">
<rect width="100" height="100"/>
</g></g><g transform="translate(98,196) scale(0.07,0.07)"><g transform="" style="fill: rgb(255, 255, 255);">
<polygon points="0,100 100,50 100,50 0,0 "/>
</g></g><g transform="translate(119,196) scale(0.07,0.07)"><g transform="" style="fill: rgb(255, 255, 255);">
<polygon points="100,100 0,50 0,50 100,0 "/>
</g></g><g transform="translate(126,196) scale(0.07,0.07)"><g transform="" style="fill: rgb(255, 255, 255);">
<rect width="100" height="100"/>
</g></g><g transform="translate(133,196) scale(0.07,0.07)"><g transform="" style="fill: rgb(255, 255, 255);">
<rect width="100" height="100"/>
</g></g><g transform="translate(140,196) scale(0.07,0.07)"><g transform="" style="fill: rgb(255, 255, 255);">
<polygon points="0,100 100,50 100,50 0,0 "/>
</g></g><g transform="translate(154,196) scale(0.07,0.07)"><g transform="" style="fill: rgb(255, 255, 255);">
<polygon points="0,-0.001 50,99.999 50,99.999 100,-0.001 "/>
</g></g><g transform="translate(0,0) scale(0.48039215686275, 0.48039215686275)"><g transform="" style="fill: rgb(255, 255, 255);">
<g>
	<path style="fill:none;" d="M51,16c-19.299,0-35,15.701-35,35s15.701,35,35,35s35-15.701,35-35S70.299,16,51,16z"/>
	<path d="M51,1C23.387,1,1,23.387,1,51s22.387,50,50,50s50-22.387,50-50S78.613,1,51,1z M51,86c-19.299,0-35-15.701-35-35
		s15.701-35,35-35s35,15.701,35,35S70.299,86,51,86z"/>
</g>
</g></g><g transform="translate(154,0) scale(0.48039215686275, 0.48039215686275)"><g transform="" style="fill: rgb(255, 255, 255);">
<g>
	<path style="fill:none;" d="M51,16c-19.299,0-35,15.701-35,35s15.701,35,35,35s35-15.701,35-35S70.299,16,51,16z"/>
	<path d="M51,1C23.387,1,1,23.387,1,51s22.387,50,50,50s50-22.387,50-50S78.613,1,51,1z M51,86c-19.299,0-35-15.701-35-35
		s15.701-35,35-35s35,15.701,35,35S70.299,86,51,86z"/>
</g>
</g></g><g transform="translate(0,154) scale(0.48039215686275, 0.48039215686275)"><g transform="" style="fill: rgb(255, 255, 255);">
<g>
	<path style="fill:none;" d="M51,16c-19.299,0-35,15.701-35,35s15.701,35,35,35s35-15.701,35-35S70.299,16,51,16z"/>
	<path d="M51,1C23.387,1,1,23.387,1,51s22.387,50,50,50s50-22.387,50-50S78.613,1,51,1z M51,86c-19.299,0-35-15.701-35-35
		s15.701-35,35-35s35,15.701,35,35S70.299,86,51,86z"/>
</g>
</g></g><g transform="translate(14,14) scale(0.20588235294118, 0.20588235294118)"><g transform="" style="fill: rgb(255, 255, 255);">
<circle cx="50" cy="50" r="50"/>
</g></g><g transform="translate(168,14) scale(0.20588235294118, 0.20588235294118)"><g transform="" style="fill: rgb(255, 255, 255);">
<circle cx="50" cy="50" r="50"/>
</g></g><g transform="translate(14,168) scale(0.20588235294118, 0.20588235294118)"><g transform="" style="fill: rgb(255, 255, 255);">
<circle cx="50" cy="50" r="50"/>
</g></g></g></svg>